<svg xmlns="http://www.w3.org/2000/svg" viewBox="0 0 36.99 31.99"><title>Vector-Icons</title><path d="M36.27,24.51l-13.2-22A5.23,5.23,0,0,0,18.49,0,5.23,5.23,0,0,0,13.9,2.53L.7,24.51a4.81,4.81,0,0,0,0,5A5.57,5.57,0,0,0,5.33,32H31.69a5.35,5.35,0,0,0,4.58-2.48A4.7,4.7,0,0,0,36.27,24.51ZM35,28.81a3.81,3.81,0,0,1-3.3,1.78H5.33A3.81,3.81,0,0,1,2,28.81a3.39,3.39,0,0,1,0-3.6l13.2-22a3.9,3.9,0,0,1,6.6,0l13.2,22A3.39,3.39,0,0,1,35,28.81ZM18.29,10.15a.74.74,0,0,0-.74.7v8.89a.74.74,0,0,0,1.48,0V10.85A.74.74,0,0,0,18.29,10.15Zm0,12.63a.74.74,0,0,0-.74.7v1.4a.74.74,0,0,0,1.48,0v-1.4A.74.74,0,0,0,18.29,22.78Z" style="fill:#fff"/></svg>