<svg xmlns="http://www.w3.org/2000/svg" viewBox="0 0 26.99 27.03"><title>Vector-Icons</title><path d="M6.45,0a.58.58,0,0,0-.59.58V3.83A2.05,2.05,0,1,0,7,3.83V.58A.58.58,0,0,0,6.45,0ZM17.6,0A.58.58,0,0,0,17,.58V3.83a2.05,2.05,0,1,0,1.17,0V.58A.58.58,0,0,0,17.6,0ZM2.94,1.73A2.92,2.92,0,0,0,0,4.61V21.84a2.92,2.92,0,0,0,2.94,2.88H18.23A4.71,4.71,0,0,0,22.3,27a4.59,4.59,0,0,0,1.76-8.87V4.61a2.92,2.92,0,0,0-2.94-2.88H19.36a.6.6,0,0,0-.59.58.6.6,0,0,0,.59.58h1.75a1.74,1.74,0,0,1,1.77,1.73v4H1.17v-4A1.74,1.74,0,0,1,2.94,2.88H4.69a.6.6,0,0,0,.59-.58.6.6,0,0,0-.59-.58Zm5.27,0a.58.58,0,1,0,0,1.15h7.63a.58.58,0,1,0,0-1.15ZM6.45,4.89a.86.86,0,1,1-.88.86A.86.86,0,0,1,6.45,4.89Zm11.15,0a.86.86,0,1,1-.88.86A.86.86,0,0,1,17.6,4.89ZM1.17,9.78H22.88v8.1a4.75,4.75,0,0,0-.59,0,4.66,4.66,0,0,0-4.69,4.6,4.48,4.48,0,0,0,.16,1.15H2.94a1.74,1.74,0,0,1-1.77-1.73ZM22.3,19a3.45,3.45,0,1,1-3.52,3.45A3.48,3.48,0,0,1,22.3,19Zm0,.57a.58.58,0,0,0-.59.58v2.3a.58.58,0,0,0,.59.58h2.05a.58.58,0,1,0,0-1.15H22.88V20.13A.58.58,0,0,0,22.3,19.55Z" style="fill:#fff"/></svg>