<svg xmlns="http://www.w3.org/2000/svg" viewBox="0 0 95.97 96"><title>Vector-Icons</title><path d="M48,40.58a9.72,9.72,0,1,1,9.72-9.72A9.73,9.73,0,0,1,48,40.58Zm0-18.74a9,9,0,1,0,9,9A9,9,0,0,0,48,21.84ZM42.92,25.7v7a5.11,5.11,0,1,0,10.22,0v-7Zm.83,8.17.65-1.11.65,1.11Zm2.14,0L44.82,32l.51-.85,1.54,2.7Zm1.83,0-2-3.43.5-.85,2.44,4.28Zm1.82,0-2.9-5,.49-.82,3.33,5.82Zm1.78,0-3.78-6.56.5-.84,4.25,7.4ZM23.15,55.81h1.29c2.11,0,2.37-1.24,2.37-4.48s-.26-4.48-2.37-4.48H23.15ZM25,44.6c3.61,0,4.73,1.92,4.73,6.77S28.57,58.14,25,58.14H20.32V44.6Zm6.21,0h7.31v2.3H34v2.89h4.1v2.36H34v3.61h4.46v2.39H31.17Zm15.12,8.17-1.35-5.59-1.42,5.59Zm.57,2.36H42.92l-.71,3H39.37L43.19,44.6H46.8l3.76,13.54h-3ZM51.44,44.6h2.82v5.89l3.52-5.89h3l-3.91,6.23,3.91,7.31H57.46l-3.2-6.58v6.58H51.44ZM62,44.6h2.74V58.14H62Zm7,4.67v8.86H66.55V44.6h3.4l3.27,8.33V44.6H75.7V58.14H72.6ZM24.27,66V61.71s0-.07.1-.1l.24-.07.29,0h.23a.27.27,0,0,1,.21.09.29.29,0,0,1,.08.2V66.1a3.79,3.79,0,0,1-.16,1.18,1.82,1.82,0,0,1-.47.77,1.79,1.79,0,0,1-.8.42,4.6,4.6,0,0,1-1.13.12h-.08a4.4,4.4,0,0,1-1.11-.12,1.79,1.79,0,0,1-.79-.42,1.82,1.82,0,0,1-.47-.77,3.8,3.8,0,0,1-.16-1.18V61.71s0-.07.1-.1l.24-.07.29,0h.23a.27.27,0,0,1,.2.09.28.28,0,0,1,.09.2V66a3.41,3.41,0,0,0,.06.7,1,1,0,0,0,.22.47.92.92,0,0,0,.43.27,2.22,2.22,0,0,0,.67.09h.08a2.31,2.31,0,0,0,.68-.09,1,1,0,0,0,.44-.27,1,1,0,0,0,.23-.47A3.22,3.22,0,0,0,24.27,66Zm7.25.43V61.66s0-.07.11-.09l.25-.05.29,0h.23q.25,0,.25.29v6.58a.21.21,0,0,1-.09.18.33.33,0,0,1-.2.07h-.21l-.26,0-.24-.06a.26.26,0,0,1-.14-.09l-3.11-4.79v4.71a.23.23,0,0,1-.09.19.31.31,0,0,1-.2.07h-.23l-.28,0a.93.93,0,0,1-.23-.06q-.1,0-.1-.1V61.68s0-.07.1-.1a.94.94,0,0,1,.23-.06l.28,0h.23a.26.26,0,0,1,.18.06.64.64,0,0,1,.12.14Zm4.13,1.87a.23.23,0,0,1-.09.19.32.32,0,0,1-.21.07h-.23l-.28,0a.94.94,0,0,1-.24-.06q-.1,0-.1-.1V61.68s0-.07.1-.1a1,1,0,0,1,.24-.06l.28,0h.23a.31.31,0,0,1,.21.08.24.24,0,0,1,.09.18Zm4.21-1.7,1.45-5a.59.59,0,0,1,.31-.17,2.27,2.27,0,0,1,.41,0h.2l.17,0a.22.22,0,0,1,.11.1.23.23,0,0,1,0,.18l-2.21,6.64a.17.17,0,0,1-.1.11.39.39,0,0,1-.17,0,3.49,3.49,0,0,1-.53,0c-.14,0-.23-.06-.26-.11L37,61.8a.22.22,0,0,1,0-.16.24.24,0,0,1,.09-.1.36.36,0,0,1,.13-.05h.41l.27,0a.75.75,0,0,1,.21.07.24.24,0,0,1,.11.13l1.48,4.93a1.21,1.21,0,0,1,.05.24c0,.09,0,.16,0,.23l0-.23A1.17,1.17,0,0,1,39.87,66.64Zm4,1.65V61.83a.22.22,0,0,1,.09-.19.35.35,0,0,1,.21-.06H48a.22.22,0,0,1,.18.09.29.29,0,0,1,.07.19c0,.05,0,.12,0,.21s0,.17,0,.25a.86.86,0,0,1-.06.21c0,.06-.06.09-.1.09H45v1.86h2.63a.22.22,0,0,1,.17.08.28.28,0,0,1,.07.19c0,.05,0,.12,0,.21s0,.17,0,.25a.86.86,0,0,1-.06.21c0,.06-.06.09-.1.09H45v2h3a.23.23,0,0,1,.18.08.29.29,0,0,1,.07.2q0,.08,0,.2c0,.08,0,.17,0,.25a.86.86,0,0,1-.06.21c0,.06-.06.09-.1.09H44.28a.73.73,0,0,1-.28-.06C43.9,68.38,43.85,68.33,43.85,68.29Zm6,.11V61.83a.22.22,0,0,1,.09-.18.32.32,0,0,1,.21-.07h2.11a5.66,5.66,0,0,1,1.12.1,1.76,1.76,0,0,1,.76.34,1.35,1.35,0,0,1,.43.64,3.21,3.21,0,0,1,.13,1v.21a3.78,3.78,0,0,1-.07.79,1.73,1.73,0,0,1-.22.58,1.14,1.14,0,0,1-.41.38,2.13,2.13,0,0,1-.61.22l1.33,2.3a.63.63,0,0,1,.11.28.12.12,0,0,1,0,.1l-.1.06-.12,0h-.31l-.27,0a1.05,1.05,0,0,1-.25-.07.32.32,0,0,1-.16-.13l-1.41-2.41H51v2.41a.22.22,0,0,1-.09.18.32.32,0,0,1-.2.07h-.23l-.28,0A.94.94,0,0,1,50,68.5Q49.87,68.45,49.87,68.4Zm2.47-5.79H51v2.31h1.33a3.55,3.55,0,0,0,.63,0,.74.74,0,0,0,.36-.16.57.57,0,0,0,.17-.32,2.62,2.62,0,0,0,0-.53v-.21a2.7,2.7,0,0,0,0-.53.57.57,0,0,0-.17-.32.74.74,0,0,0-.36-.16A3.65,3.65,0,0,0,52.34,62.61Zm4,4.81.23.06.36.08.45.07.49,0a2.94,2.94,0,0,0,.51,0,1.49,1.49,0,0,0,.44-.14.83.83,0,0,0,.31-.27.72.72,0,0,0,.11-.42.82.82,0,0,0-.22-.58,2.77,2.77,0,0,0-.57-.45l-.74-.43a4.49,4.49,0,0,1-.74-.5,2.48,2.48,0,0,1-.57-.67,1.85,1.85,0,0,1-.22-.94,1.72,1.72,0,0,1,.17-.8,1.44,1.44,0,0,1,.46-.53,2,2,0,0,1,.71-.3,4,4,0,0,1,.91-.1h.32l.45,0,.47.06a1.48,1.48,0,0,1,.38.11.29.29,0,0,1,.16.13.47.47,0,0,1,0,.22,1.08,1.08,0,0,1-.11.42.21.21,0,0,1-.24.14l-.55-.1a4.55,4.55,0,0,0-.69,0,2.32,2.32,0,0,0-1,.17.59.59,0,0,0-.37.57.74.74,0,0,0,.22.54,3,3,0,0,0,.57.43l.74.42a4.22,4.22,0,0,1,.74.51,2.52,2.52,0,0,1,.56.7,2,2,0,0,1,.23,1,1.78,1.78,0,0,1-.21.9,1.53,1.53,0,0,1-.55.56,2.3,2.3,0,0,1-.79.28,5.41,5.41,0,0,1-.92.08h-.46l-.47,0-.44-.07-.35-.09c-.1,0-.15-.07-.17-.11a.43.43,0,0,1,0-.22,1.83,1.83,0,0,1,.11-.47Q56.19,67.39,56.33,67.42Zm6.73.92a.23.23,0,0,1-.09.19.32.32,0,0,1-.21.07h-.23l-.28,0A.94.94,0,0,1,62,68.5q-.1,0-.1-.1V61.68s0-.07.1-.1a.94.94,0,0,1,.24-.06l.28,0h.23a.31.31,0,0,1,.21.08.24.24,0,0,1,.09.18Zm4.44-5.72v5.72a.23.23,0,0,1-.09.19.33.33,0,0,1-.21.07H67l-.28,0a.93.93,0,0,1-.23-.06q-.1,0-.1-.1V62.62H64.58a.23.23,0,0,1-.18-.08.29.29,0,0,1-.07-.2c0-.05,0-.12,0-.2s0-.17,0-.25a.87.87,0,0,1,.06-.21c0-.06.06-.09.1-.09h4.72a.23.23,0,0,1,.18.08.29.29,0,0,1,.07.2c0,.05,0,.12,0,.21s0,.17,0,.25a.79.79,0,0,1-.06.21c0,.06-.06.09-.1.09ZM73.59,66v2.39a.23.23,0,0,1-.09.19.32.32,0,0,1-.21.07h-.22l-.28,0a.94.94,0,0,1-.24-.06q-.1,0-.1-.1V66l-2.09-4.07c-.07-.14-.08-.24,0-.31a.37.37,0,0,1,.3-.1h.27l.26,0,.21,0a.19.19,0,0,1,.12.09L73,64.77l1.53-3.12a.2.2,0,0,1,.11-.09l.21-.05.26,0h.27a.36.36,0,0,1,.29.09q.07.09,0,.31ZM47.94,0a48,48,0,0,0,0,96h0a48,48,0,0,0-.09-96ZM48,94.81h0a46.81,46.81,0,0,1,0-93.62h0A46.81,46.81,0,0,1,48,94.81Z" style="fill:#fff"/></svg>