<svg xmlns="http://www.w3.org/2000/svg" viewBox="0 0 23.99 23.99"><title>Vector-Icons</title><path d="M23.8,11.51a.67.67,0,0,0-.47-.21l0-.35v.35a.68.68,0,0,0-.67.68A10.5,10.5,0,0,1,3,17.29l-.3-.52H6.16a.7.7,0,0,0,.49-.19.67.67,0,0,0,.21-.48.68.68,0,0,0-.67-.69H1.36a.68.68,0,0,0-.68.68v4.8a.68.68,0,0,0,.19.49.67.67,0,0,0,.47.21h0A.68.68,0,0,0,2,20.92V18.43l.63.84A11.78,11.78,0,0,0,12.13,24,11.94,11.94,0,0,0,24,12,.68.68,0,0,0,23.8,11.51ZM1.36,12A10.59,10.59,0,0,1,11.85,1.35,10.54,10.54,0,0,1,21,6.68l.3.53H17.82a.72.72,0,0,0-.69.67.68.68,0,0,0,.67.69h4.83a.68.68,0,0,0,.68-.68V3.08a.68.68,0,1,0-1.36,0v2.5l-.63-.83A11.78,11.78,0,0,0,11.85,0,11.94,11.94,0,0,0,0,12a.68.68,0,0,0,.67.69.56.56,0,0,0,.48-.19A.68.68,0,0,0,1.36,12Z" style="fill:#fff"/></svg>