<svg xmlns="http://www.w3.org/2000/svg" viewBox="0 0 36 36"><title>Vector-Icons</title><path d="M0,0V36H36V0ZM29,26.39A2.61,2.61,0,0,1,26.39,29H9.62A2.61,2.61,0,0,1,7,26.39V9.61A2.61,2.61,0,0,1,9.62,7H26.39A2.61,2.61,0,0,1,29,9.61ZM18,22.25A4.22,4.22,0,1,0,13.8,18,4.23,4.23,0,0,0,18,22.25ZM24.72,18a6.69,6.69,0,0,1-13.39,0,4.2,4.2,0,0,1,.48-2.09H9.06V26.25a.69.69,0,0,0,.69.69h16.5a.69.69,0,0,0,.69-.69V15.94H24.19A3.52,3.52,0,0,1,24.72,18ZM23.5,13.19h2.06a.69.69,0,0,0,.69-.69V10.44a.69.69,0,0,0-.69-.69H23.5a.69.69,0,0,0-.69.69V12.5A.69.69,0,0,0,23.5,13.19Z" style="fill:#517fa5"/></svg>