<svg xmlns="http://www.w3.org/2000/svg" viewBox="0 0 64.01 100.97"><title>Vector-Icons</title><path d="M38.61,32.36A1.41,1.41,0,1,0,40,31,1.41,1.41,0,0,0,38.61,32.36Zm25.27,34-.11-.22A12.86,12.86,0,0,0,62.91,64l-.76-1.41c-1.3-2.27-2.6-4.65-4-6.82-.65-1-.65-1.3-.11-2.06a8.85,8.85,0,0,0,1.3-5.74c-.22-1.73-.87-4.87-.87-5.19a1.56,1.56,0,0,0-.76-1.19c-.11-.11-.22-.11-.33-.22C53.26,38.31,35.47,38,29.61,38c-6.18,0-25.16.32-28.31,3.79,0,.11-.11.11-.11.22s-.11.11-.11.22a.11.11,0,0,1-.11.11c0,.11,0,.11-.11.22v.11a21.56,21.56,0,0,0-.65,9.2,34.32,34.32,0,0,0,4,12.45C5.1,65.8,7,68.83,8.89,71.75s3.9,6.06,4.23,6.82c2.6,5.41,1.41,12.12-3.47,19.37a1.82,1.82,0,0,0-.11,1.95A1.93,1.93,0,0,0,11.28,101H42.19a1.76,1.76,0,0,0,1.74-1.19,1.9,1.9,0,0,0-.65-2.06c-3-2.38-4-5.52-2.93-8.77,3,.32,11,.22,13-.54,1.84-.65,4.34-1.62,3.47-5-.11-.32-.11-.65-.22-1.08a3.2,3.2,0,0,0-.22-1.08.61.61,0,0,1,.11-.65,7.11,7.11,0,0,0,1.3-1.84,6,6,0,0,0,.76-6,3.69,3.69,0,0,1-.22-1.62l.43-.22A13.25,13.25,0,0,0,63,69.16,2.57,2.57,0,0,0,63.89,66.34ZM29.39,40.26c14.32,0,23.75,1.41,26,2.49-2.28,1.19-11.71,2.49-26,2.49s-23.75-1.41-26-2.49C5.64,41.56,15.08,40.26,29.39,40.26ZM61.5,67.32a6.87,6.87,0,0,1-3.36,1.52H58c-1.19.32-1.84.76-1.63,2.38a6,6,0,0,0,.43,2.27,4,4,0,0,1-.54,3.9A15.49,15.49,0,0,1,55.1,79a3,3,0,0,0-.65,2.71,2.68,2.68,0,0,1,.11.87A6.32,6.32,0,0,0,54.77,84c.33,1.08.33,1.41-2.06,2.27-1.63.65-9.76.76-12.26.32a15.64,15.64,0,0,1-5.31-2.27c-.11,0-8-4.22-8-9.63V72H24.84v2.71c0,6.82,8.89,11.47,9.22,11.58a21.59,21.59,0,0,0,4.23,1.95,9.77,9.77,0,0,0,2.82,10.39H11.93c6.4-9.85,5.42-16.88,3.25-21.1-.43-.87-2.28-3.79-4.34-7C9,67.64,7.16,64.61,6.29,63.09a31.7,31.7,0,0,1-3.8-11.58A20.45,20.45,0,0,1,2.6,44.7C8,47.19,23.86,47.51,29.39,47.51s21.8-.22,27-2.81c.22,1.08.43,2.6.54,3.57a5.6,5.6,0,0,1-1,4.11,3.68,3.68,0,0,0,.11,4.44c1.41,2.16,2.71,4.44,3.9,6.71l.76,1.41a9.34,9.34,0,0,1,.76,1.84l.11.22C61.61,67.1,61.72,67.21,61.5,67.32ZM54.45,22A1.28,1.28,0,0,0,53,23.27v.43A2.06,2.06,0,0,1,51,25.76h-.33a1.5,1.5,0,0,0-1.41,1.19,1.28,1.28,0,0,0,1.3,1.41H51A2.06,2.06,0,0,1,53,30.41v.32a1.5,1.5,0,0,0,1.19,1.41,1.28,1.28,0,0,0,1.41-1.3V30.3a1.94,1.94,0,0,1,2-1.95h.54a1.28,1.28,0,0,0,1.3-1.41A1.5,1.5,0,0,0,58,25.76h-.43a1.94,1.94,0,0,1-2-1.95v-.43A1.5,1.5,0,0,0,54.45,22ZM25.81,12.23h.43a2.06,2.06,0,0,1,2.06,2.06v.32A1.5,1.5,0,0,0,29.5,16a1.28,1.28,0,0,0,1.41-1.3v-.54a1.94,1.94,0,0,1,2-1.95h.54a1.28,1.28,0,0,0,1.3-1.41A1.4,1.4,0,0,0,33.3,9.74h-.43a1.94,1.94,0,0,1-2-1.95V7.25a1.5,1.5,0,0,0-1.19-1.41,1.28,1.28,0,0,0-1.41,1.3v.43a2.06,2.06,0,0,1-2.06,2.06h-.33a1.5,1.5,0,0,0-1.41,1.19A1.28,1.28,0,0,0,25.81,12.23Zm9.87,13.2a.81.81,0,0,0,.54.11,1,1,0,0,0,.87-.43h.65A2.72,2.72,0,0,0,40.35,24,2.54,2.54,0,0,0,40,21.21a.82.82,0,0,0-.22-.43h.43a2.72,2.72,0,0,0,2.6-1.08,2.76,2.76,0,0,0-.33-2.81.82.82,0,0,0-.22-.43h.54a2.73,2.73,0,0,0,2.6-1.08A1.09,1.09,0,0,0,45,13.85a1.17,1.17,0,0,0-1.52.32h-.65a2.72,2.72,0,0,0-2.6,1.08,2.76,2.76,0,0,0,.33,2.81.82.82,0,0,0,.22.43h-.43a2.72,2.72,0,0,0-2.6,1.08,2.54,2.54,0,0,0,.33,2.81.82.82,0,0,0,.22.43h-.43a2.72,2.72,0,0,0-2.6,1.08A1.09,1.09,0,0,0,35.68,25.43Zm-15,.11a2.42,2.42,0,0,0,2.71.54c.11,0,.33-.11.43-.11s-.11.32-.11.43A2.68,2.68,0,0,0,24,29.22a2.42,2.42,0,0,0,2.71.54c.11,0,.33-.11.43-.11S27,30,27,30.09a2.68,2.68,0,0,0,.22,2.81,1.23,1.23,0,0,0,.87.32,2,2,0,0,0,.76-.22A1.16,1.16,0,0,0,29,31.49a1.54,1.54,0,0,1,.22-.65A2.68,2.68,0,0,0,29,28a2.42,2.42,0,0,0-2.71-.54c-.11,0-.33.11-.43.11s.11-.32.11-.43a2.68,2.68,0,0,0-.22-2.81A2.42,2.42,0,0,0,23,23.81c-.11,0-.33.11-.43.11s.11-.32.11-.43a2.68,2.68,0,0,0-.22-2.81,1.09,1.09,0,0,0-1.63-.11,1.16,1.16,0,0,0-.11,1.52c-.11.22-.11.43-.22.65A2.68,2.68,0,0,0,20.72,25.54ZM3.47,30.74H3.8a1.48,1.48,0,0,1,1.52,1.52v.22a.88.88,0,0,0,.87,1,1.07,1.07,0,0,0,1.08-1V32a1.43,1.43,0,0,1,1.41-1.41h.22a1,1,0,0,0,1-1.08c0-.43-.54-.76-1-.76H8.57a1.43,1.43,0,0,1-1.41-1.41v-.43a.88.88,0,0,0-.87-1,1.07,1.07,0,0,0-1.08,1v.32a1.48,1.48,0,0,1-1.52,1.51H3.47a.89.89,0,0,0-1,.87A1.07,1.07,0,0,0,3.47,30.74ZM48.7,7.9H49a1.48,1.48,0,0,1,1.52,1.52v.22a.88.88,0,0,0,.87,1,1.07,1.07,0,0,0,1.08-1V9.2a1.43,1.43,0,0,1,1.41-1.41h.43a1,1,0,0,0,1-1.08,1.44,1.44,0,0,0-1.19-.87H53.8a1.43,1.43,0,0,1-1.41-1.41V4.11a.88.88,0,0,0-.87-1,1.07,1.07,0,0,0-1.08,1v.32A1.48,1.48,0,0,1,48.92,6H48.7a.89.89,0,0,0-1,.87A1.07,1.07,0,0,0,48.7,7.9ZM8.57,14.5h.33A1.48,1.48,0,0,1,10.41,16v.11a.88.88,0,0,0,.87,1,1.07,1.07,0,0,0,1.08-1v-.43a1.43,1.43,0,0,1,1.41-1.41h.43a1,1,0,0,0,1-1.08A1.56,1.56,0,0,0,14,12.45h-.33A1.43,1.43,0,0,1,12.26,11v-.32a.88.88,0,0,0-.87-1,1.07,1.07,0,0,0-1.08,1V11a1.48,1.48,0,0,1-1.52,1.52H8.57a.89.89,0,0,0-1,.87A1.07,1.07,0,0,0,8.57,14.5ZM41.11,3.68A1.41,1.41,0,1,0,39.7,2.27,1.41,1.41,0,0,0,41.11,3.68ZM18.66,2.81a1.41,1.41,0,1,0-1.41-1.41A1.41,1.41,0,0,0,18.66,2.81ZM17.14,33.87a1.41,1.41,0,1,0-1.41-1.41A1.41,1.41,0,0,0,17.14,33.87Z" style="fill:#fff"/></svg>