<svg width="65" height="200" xmlns="http://www.w3.org/2000/svg">
 <!-- Created with Method Draw - http://github.com/duopixel/Method-Draw/ -->

 <g>
  <title>background</title>
  <rect fill="#667070" id="canvas_background" height="202" width="67" y="-1" x="-1"/>
  <g display="none" overflow="visible" y="0" x="0" height="100%" width="100%" id="canvasGrid">
   <rect fill="url(#gridpattern)" stroke-width="0" y="0" x="0" height="100%" width="100%"/>
  </g>
 </g>
 <g>
  <title>Layer 1</title>
  <g stroke="null" id="svg_5">
   <path stroke="null" id="svg_4" fill="#fff" d="m61.563568,62.140711l-57.127144,0a3.758365,3.758365 0 1 0 0,7.516729l0,36.020167a1.503346,1.503346 0 0 0 1.503346,1.503346l26.308553,0l0,4.976075l-10.966908,11.680998a0.751673,0.751673 0 0 0 -0.067651,1.15006a0.789257,0.789257 0 0 0 1.15006,-0.142818l9.884499,-10.530938l0,4.878357a0.751673,0.751673 0 0 0 1.503346,0l0,-4.878357l9.892016,10.523421a0.789257,0.789257 0 0 0 1.15006,0.142818a0.751673,0.751673 0 0 0 -0.067651,-1.15006l-10.974425,-11.680998l0,-4.968558l26.308553,0a1.503346,1.503346 0 0 0 1.503346,-1.503346l0,-36.020167a3.758365,3.758365 0 1 0 0,-7.516729zm-1.503346,43.536897l-54.120452,0l0,-36.020167l54.120452,0l0,36.020167zm1.503346,-37.523513l-57.127144,0a2.255019,2.255019 0 0 1 -2.255019,-2.255019a2.255019,2.255019 0 0 1 2.255019,-2.255019l57.127144,0a2.255019,2.255019 0 0 1 2.255019,2.255019a2.255019,2.255019 0 0 1 -2.255019,2.255019zm-49.89605,16.439087l1.037309,0.398387l0,5.133926a1.503346,1.503346 0 0 0 -0.751673,1.292877a1.503346,1.503346 0 0 0 3.006692,0a1.503346,1.503346 0 0 0 -0.751673,-1.292877l0,-4.547621l4.555138,1.804015a0.751673,0.751673 0 0 0 -0.0451,0.315703l0,7.516729a2.818774,2.818774 0 0 0 1.360528,2.157301a11.56073,11.56073 0 0 0 3.104409,1.570996a30.194702,30.194702 0 0 0 9.816849,1.503346a30.194702,30.194702 0 0 0 9.816849,-1.503346a11.553213,11.553213 0 0 0 3.096893,-1.570996a2.818774,2.818774 0 0 0 1.368045,-2.202402l0,-7.471629a0.811807,0.811807 0 0 0 -0.0451,-0.278119l7.095793,-2.788707a0.789257,0.789257 0 0 0 0,-1.383078l-21.046842,-8.268402a0.84939,0.84939 0 0 0 -0.563755,0l-21.046842,8.268402a0.789257,0.789257 0 0 0 -0.007517,1.345495zm34.110918,10.576038c0,0.150335 -0.187918,0.511138 -0.751673,0.962141a10.230269,10.230269 0 0 1 -2.698506,1.337978a28.901825,28.901825 0 0 1 -9.328261,1.450729a28.901825,28.901825 0 0 1 -9.328261,-1.450729a10.222752,10.222752 0 0 1 -2.698506,-1.337978c-0.586305,-0.451004 -0.751673,-0.811807 -0.751673,-0.962141l0,-7.223577l12.492804,4.900908a0.751673,0.751673 0 0 0 0.563755,0l12.500321,-4.900908l0,7.223577zm-12.77844,-18.746723l19.002292,7.516729l-19.002292,7.403978l-19.002292,-7.403978l19.002292,-7.516729z"/>
  </g>
 </g>
</svg>