<svg xmlns="http://www.w3.org/2000/svg" viewBox="0 0 30.95 27.99"><title>Vector-Icons</title><path d="M30.81,26.85c-1.68-3.27-3.11-3.61-5.48-4.17l-.15,0a19.51,19.51,0,0,1-4.46-1.52L20.46,21a.56.56,0,0,0-.5-.61.58.58,0,0,0-.64.51c-.09.65.19.9.88,1.27a21.34,21.34,0,0,0,4.73,1.62l.15,0c2.15.51,3.13.74,4.42,3H1.42c1.29-2.28,2.3-2.54,4.35-3.06l.19,0a21.79,21.79,0,0,0,4.72-1.62c1-.5,1-1.24.83-1.56a.57.57,0,0,0-.76-.28.58.58,0,0,0-.32.62.87.87,0,0,1-.26.18,20.74,20.74,0,0,1-4.48,1.53l-.2.05c-2.31.59-3.7.94-5.34,4.13a1,1,0,0,0-.13.74A.57.57,0,0,0,.58,28h29.8a.58.58,0,0,0,.57-.58A1.13,1.13,0,0,0,30.81,26.85ZM7.26,12.05c.33,1.42.59,2.57,1.48,3.07,1.25,3.79,4,6.52,6.7,6.52s5.45-2.73,6.69-6.53c.91-.43,1.15-1.54,1.46-2.91l0-.2a1.68,1.68,0,0,0-.27-1.65,1,1,0,0,0-.3-.2l.12-1V9.05A7.93,7.93,0,0,0,15.44,0,8,8,0,0,0,7.61,8a8.85,8.85,0,0,0,.12,1.45l.08.64a1,1,0,0,0-.28.19A1.79,1.79,0,0,0,7.24,12ZM8.86,9.33A7.78,7.78,0,0,1,8.76,8a6.8,6.8,0,0,1,6.69-6.89A6.8,6.8,0,0,1,22.13,8a6.93,6.93,0,0,1-.07.89l-.19,1.65-.13.81.82-.22a1.05,1.05,0,0,1,0,.58l0,.21c-.3,1.33-.47,2-.95,2.16l-.31.08-.09.31c-1,3.41-3.48,6-5.69,6s-4.64-2.56-5.69-5.95l-.08-.27-.27-.1c-.51-.19-.71-1-1-2.37v0a2.27,2.27,0,0,1-.06-.54l.83.26Z" style="fill:#fff"/></svg>