<svg xmlns="http://www.w3.org/2000/svg" viewBox="0 0 84.99 85.99"><title>Vector-Icons</title><path d="M85,61.8A5.41,5.41,0,0,0,83.43,58a5.28,5.28,0,0,0-3.77-1.58h-.39V38.1a9.73,9.73,0,0,0-5.12-8.6L61.61,22.77l0,0,0-.09a8.25,8.25,0,0,0-6.26-5.16L55,17.42v-4.8a4,4,0,0,0-1.14-2.79,3.87,3.87,0,0,0-2.76-1.16h-.39V1.06a1.05,1.05,0,0,0-1-1.06H35.35a1.05,1.05,0,0,0-1,1.06V8.68h-.39a3.87,3.87,0,0,0-2.76,1.16A4,4,0,0,0,30,12.63V41.55a4,4,0,0,0,2.6,3.7l.26.09V56a1.05,1.05,0,0,0,1,1.06h5.72a1.05,1.05,0,0,0,1-1.06V45.5h3.63v7.62a1.05,1.05,0,0,0,1,1.06h5.72a1.05,1.05,0,0,0,1-1.06V45.35l.08,0,.17-.06a4,4,0,0,0,2.6-3.7V33.86l.1,0,.22,0c.25,0,.49-.1.72-.16l.13,0,8,3.7a7.64,7.64,0,0,1,4.42,6.94V72.31H57.83V67.58a1.05,1.05,0,0,0-1-1.06H28.2a1.05,1.05,0,0,0-1,1.06v4.73H21.68A25.17,25.17,0,0,0,.16,84.38a1.07,1.07,0,0,0,0,1.07A1,1,0,0,0,1,86H84a1.05,1.05,0,0,0,1-1.06V73.37a1.05,1.05,0,0,0-1-1.06H79.28V67.19h.39a5.28,5.28,0,0,0,3.77-1.58A5.41,5.41,0,0,0,85,61.8ZM36.39,2.24V2.11H48.6V8.68H36.39Zm2.2,52.59V55H35V45.5H38.6ZM50,51.94v.13H46.4V45.5H50Zm2.86-10.39a1.83,1.83,0,0,1-1.82,1.84H33.92a1.83,1.83,0,0,1-1.82-1.84V36.82h3.25a1.06,1.06,0,0,0,0-2.11H32.1V28.14h4.68a1.06,1.06,0,0,0,0-2.11H32.1V19.47h3.25a1.06,1.06,0,0,0,0-2.11H32.1V12.63a1.83,1.83,0,0,1,1.82-1.84H51.07a1.83,1.83,0,0,1,1.82,1.84v4.8l-.1,0-.22,0a8.29,8.29,0,0,0,0,16.33l.32.05Zm3.22-10.15h0a1.3,1.3,0,0,0-.37.13h0a6,6,0,0,1-1.76.27,6.18,6.18,0,1,1,5.74-8.25h0v.06h0a1.06,1.06,0,0,0,.1.33h0A6.13,6.13,0,0,1,60,25.64,6.21,6.21,0,0,1,56.11,31.41Zm8.95,4-6.4-2.95.15-.13.32-.27a8.33,8.33,0,0,0,3-6l0-.61,11.05,5.92a7.61,7.61,0,0,1,4,6.73V57l-.06,0-.13.08a5.42,5.42,0,0,0,0,9.33l.19.11v5.73H70.7V44.25A9.76,9.76,0,0,0,65.06,35.38ZM29.25,68.77v-.13h26.5v3.67H29.25Zm53.54,5.66h.13v9.46H3l.16-.2.34-.43a23,23,0,0,1,18.17-8.82Zm-3.12-9.34a3.28,3.28,0,1,1,3.24-3.28A3.27,3.27,0,0,1,79.66,65.08Z" style="fill:#fff"/></svg>