<svg xmlns="http://www.w3.org/2000/svg" viewBox="0 0 86 83.85"><title>Vector-Icons</title><path d="M81,0H5A5,5,0,1,0,5,10V57.92a2,2,0,0,0,2,2H42v6.62L27.41,82.08a1,1,0,0,0-.09,1.53,1.05,1.05,0,0,0,1.53-.19L42,69.41V75.9a1,1,0,0,0,2,0V69.41l13.16,14a1.05,1.05,0,0,0,1.53.19,1,1,0,0,0-.09-1.53L44,66.53V59.92H79a2,2,0,0,0,2-2V10A5,5,0,1,0,81,0ZM79,57.92H7V10H79ZM81,8H5A3,3,0,0,1,2,5,3,3,0,0,1,5,2H81a3,3,0,0,1,3,3A3,3,0,0,1,81,8ZM14.62,29.87,16,30.4v6.83a2,2,0,0,0-1,1.72,2,2,0,0,0,4,0,2,2,0,0,0-1-1.72V31.18l6.06,2.4A1,1,0,0,0,24,34v10a3.75,3.75,0,0,0,1.81,2.87,15.38,15.38,0,0,0,4.13,2.09,40.17,40.17,0,0,0,13.06,2,40.17,40.17,0,0,0,13.06-2,15.37,15.37,0,0,0,4.12-2.09A3.75,3.75,0,0,0,62,43.94V34a1.08,1.08,0,0,0-.06-.37l9.44-3.71a1.05,1.05,0,0,0,0-1.84l-28-11a1.13,1.13,0,0,0-.75,0l-28,11A1.05,1.05,0,0,0,14.62,29.87ZM60,43.94c0,.2-.25.68-1,1.28A13.61,13.61,0,0,1,55.41,47,38.45,38.45,0,0,1,43,48.93,38.45,38.45,0,0,1,30.59,47,13.6,13.6,0,0,1,27,45.22c-.78-.6-1-1.08-1-1.28V34.33l16.62,6.52a1,1,0,0,0,.75,0L60,34.33ZM43,19,68.28,29,43,38.85,17.72,29Z" style="fill:#fff"/></svg>