<svg xmlns="http://www.w3.org/2000/svg" viewBox="0 0 36 36"><title>Vector-Icons</title><path d="M0,0V36H36V0ZM26.85,13c0,.2,0,.4,0,.6,0,6.08-4.33,13.1-12.26,13.1A11.65,11.65,0,0,1,8,24.6a8.27,8.27,0,0,0,6.38-1.91,4.36,4.36,0,0,1-4-3.2,4,4,0,0,0,.81.08,4,4,0,0,0,1.14-.16A4.54,4.54,0,0,1,8.84,14.9v-.06a4.1,4.1,0,0,0,2,.57,4.69,4.69,0,0,1-1.92-3.83,4.84,4.84,0,0,1,.58-2.32,12,12,0,0,0,8.88,4.81,4.87,4.87,0,0,1-.11-1,4.46,4.46,0,0,1,4.31-4.6,4.18,4.18,0,0,1,3.14,1.45,8.27,8.27,0,0,0,2.74-1.12,4.57,4.57,0,0,1-1.89,2.55A8.17,8.17,0,0,0,29,10.59,9.07,9.07,0,0,1,26.85,13Z" style="fill:#65abd4"/></svg>